<svg id="Layer_1" data-name="Layer 1" xmlns="http://www.w3.org/2000/svg" viewBox="0 0 48.6 48.59"><defs><style>.cls-1{fill:#00ade5;}</style></defs><title>icon-summer</title><g id="final_footer" data-name="final footer"><path class="cls-1" d="M2378.07,1366.56a1.33,1.33,0,0,1-1.33,1.33h0a1.33,1.33,0,0,1-1.33-1.33v-6.8a1.33,1.33,0,0,1,1.33-1.33h0a1.33,1.33,0,0,1,1.33,1.33v6.8Z" transform="translate(-2352.44 -1358.43)"/><circle class="cls-1" cx="24.3" cy="24.19" r="13.19"/><path class="cls-1" d="M2375.42,1398.9a1.33,1.33,0,0,1,1.33-1.33h0a1.33,1.33,0,0,1,1.33,1.33v6.8a1.33,1.33,0,0,1-1.33,1.33h0a1.33,1.33,0,0,1-1.33-1.33v-6.8Z" transform="translate(-2352.44 -1358.43)"/><path class="cls-1" d="M2392.91,1384.05a1.33,1.33,0,0,1-1.33-1.33h0a1.33,1.33,0,0,1,1.33-1.33h6.8a1.33,1.33,0,0,1,1.33,1.33h0a1.33,1.33,0,0,1-1.33,1.33h-6.8Z" transform="translate(-2352.44 -1358.43)"/><path class="cls-1" d="M2360.57,1381.4a1.33,1.33,0,0,1,1.33,1.33h0a1.33,1.33,0,0,1-1.33,1.33h-6.8a1.33,1.33,0,0,1-1.33-1.33h0a1.33,1.33,0,0,1,1.33-1.33h6.8Z" transform="translate(-2352.44 -1358.43)"/><path class="cls-1" d="M2389.12,1372.23a1.33,1.33,0,0,1-1.88,0h0a1.33,1.33,0,0,1,0-1.88l4.81-4.81a1.33,1.33,0,0,1,1.88,0h0a1.33,1.33,0,0,1,0,1.88Z" transform="translate(-2352.44 -1358.43)"/><path class="cls-1" d="M2364.37,1393.22a1.33,1.33,0,0,1,1.88,0h0a1.33,1.33,0,0,1,0,1.88l-4.81,4.81a1.33,1.33,0,0,1-1.88,0h0a1.33,1.33,0,0,1,0-1.88Z" transform="translate(-2352.44 -1358.43)"/><path class="cls-1" d="M2387.24,1395.1a1.33,1.33,0,0,1,0-1.88h0a1.33,1.33,0,0,1,1.88,0l4.81,4.81a1.33,1.33,0,0,1,0,1.88h0a1.33,1.33,0,0,1-1.88,0Z" transform="translate(-2352.44 -1358.43)"/><path class="cls-1" d="M2366.25,1370.35a1.33,1.33,0,0,1,0,1.88h0a1.33,1.33,0,0,1-1.88,0l-4.81-4.81a1.33,1.33,0,0,1,0-1.88h0a1.33,1.33,0,0,1,1.88,0Z" transform="translate(-2352.44 -1358.43)"/></g></svg>